<?xml version="1.0" encoding="UTF-8" standalone="no"?>
<!-- Created with Inkscape (http://www.inkscape.org/) -->

<svg
   xmlns:dc="http://purl.org/dc/elements/1.1/"
   xmlns:cc="http://creativecommons.org/ns#"
   xmlns:rdf="http://www.w3.org/1999/02/22-rdf-syntax-ns#"
   xmlns:svg="http://www.w3.org/2000/svg"
   xmlns="http://www.w3.org/2000/svg"
   xmlns:sodipodi="http://sodipodi.sourceforge.net/DTD/sodipodi-0.dtd"
   xmlns:inkscape="http://www.inkscape.org/namespaces/inkscape"
   width="1600"
   height="1600"
   viewBox="0 0 423.33332 423.33334"
   version="1.1"
   id="svg859"
   inkscape:version="0.92.5 (2060ec1f9f, 2020-04-08)"
   sodipodi:docname="crashlogo.svg">
  <defs
     id="defs853" />
  <sodipodi:namedview
     id="base"
     pagecolor="#ffffff"
     bordercolor="#666666"
     borderopacity="1.0"
     inkscape:pageopacity="0.0"
     inkscape:pageshadow="2"
     inkscape:zoom="0.36212826"
     inkscape:cx="121.37193"
     inkscape:cy="611.37155"
     inkscape:document-units="mm"
     inkscape:current-layer="layer1"
     showgrid="false"
     inkscape:window-width="1920"
     inkscape:window-height="1015"
     inkscape:window-x="0"
     inkscape:window-y="36"
     inkscape:window-maximized="1"
     units="px"
     showguides="true" />
  <metadata
     id="metadata856">
    <rdf:RDF>
      <cc:Work
         rdf:about="">
        <dc:format>image/svg+xml</dc:format>
        <dc:type
           rdf:resource="http://purl.org/dc/dcmitype/StillImage" />
        <dc:title></dc:title>
      </cc:Work>
    </rdf:RDF>
  </metadata>
  <g
     inkscape:label="Calque 1"
     inkscape:groupmode="layer"
     id="layer1"
     transform="translate(0,126.33338)">
    <rect
       style="opacity:1;fill:none;stroke:none;stroke-width:3.03308344;stroke-miterlimit:4;stroke-dasharray:none;stroke-opacity:1"
       id="rect1030"
       width="471.86862"
       height="421.9599"
       x="-24.267645"
       y="-125.86437" />
    <g
       id="g901"
       transform="matrix(6.9843851,0,0,6.24566,-526.63502,-706.01421)">
      <g
         aria-label="CRASH SERVER"
         style="font-style:normal;font-weight:normal;font-size:9.87777805px;line-height:1.25;font-family:sans-serif;letter-spacing:0px;word-spacing:0px;fill:#000000;fill-opacity:1;stroke:none;stroke-width:0.26458332"
         id="text1006">
        <path
           d="m 83.24372,139.69538 v 0 h 0.49196 v 0.49196 0.49678 h -0.49196 -0.496782 v -0.49678 h -0.49196 -0.49196 -0.496782 -0.49196 v 0.49678 0.49196 0.49196 0.49678 0.49196 0.49196 h 0.49196 0.496782 0.49196 0.49196 v -0.49196 h 0.496782 0.49196 v 0.49196 0.49678 h -0.49196 v 0.49196 h -0.496782 -0.49196 -0.49196 -0.496782 -0.49196 -0.49196 v -0.49196 h -0.496783 v -0.49678 -0.49196 -0.49196 -0.49678 -0.49196 -0.49196 -0.49678 -0.49196 h 0.496783 v -0.49679 h 0.49196 0.49196 0.496782 0.49196 0.49196 0.496782 z"
           style="font-style:normal;font-variant:normal;font-weight:normal;font-stretch:normal;font-size:9.87777805px;font-family:Pixeboy;-inkscape-font-specification:'Pixeboy, Normal';font-variant-ligatures:normal;font-variant-caps:normal;font-variant-numeric:normal;font-feature-settings:normal;text-align:start;writing-mode:lr-tb;text-anchor:start;fill:#000000;stroke-width:0.26458332"
           id="path876"
           inkscape:connector-curvature="0" />
        <path
           d="m 87.869106,139.7002 v 0 h 0.491959 v 0.49196 0.49196 0.49678 0.49196 h -0.491959 v 0.49196 h -0.496783 v 0.49678 h 0.496783 v 0.49196 h 0.491959 v 0.49196 0.49678 h -0.491959 -0.496783 v -0.49678 h -0.49196 v -0.49196 h -0.496782 v -0.49196 h -0.49196 -0.49196 v 0.49196 0.49196 0.49678 h -0.496783 -0.491959 v -0.49678 -0.49196 -0.49196 -0.49678 -0.49196 -0.49196 -0.49678 -0.49196 -0.49196 -0.49678 h 0.491959 0.496783 0.49196 0.49196 0.496782 0.49196 0.496783 z m -0.988743,1.97266 v 0 h 0.49196 v -0.49196 -0.49678 -0.49196 h -0.49196 -0.496782 -0.49196 -0.49196 v 0.49196 0.49678 0.49196 h 0.49196 0.49196 z"
           style="font-style:normal;font-variant:normal;font-weight:normal;font-stretch:normal;font-size:9.87777805px;font-family:Pixeboy;-inkscape-font-specification:'Pixeboy, Normal';font-variant-ligatures:normal;font-variant-caps:normal;font-variant-numeric:normal;font-feature-settings:normal;text-align:start;writing-mode:lr-tb;text-anchor:start;fill:#000000;stroke-width:0.26458332"
           id="path878"
           inkscape:connector-curvature="0" />
        <path
           d="m 92.494491,140.19216 v 0 h 0.49196 v 0.49678 0.49196 0.49196 0.49678 0.49196 0.49196 0.49679 0.49195 h -0.49196 -0.49196 v -0.49195 -0.49679 -0.49196 h -0.496782 -0.49196 -0.496783 -0.49196 v 0.49196 0.49679 0.49195 h -0.491959 -0.496783 v -0.49195 -0.49679 -0.49196 -0.49196 -0.49678 -0.49196 -0.49196 -0.49678 h 0.496783 v -0.49196 h 0.491959 v -0.49678 h 0.49196 0.496783 0.49196 0.496782 v 0.49678 h 0.49196 z m -0.487137,0.98392 v 0 -0.49196 h -0.496782 v -0.49678 h -0.49196 -0.496783 v 0.49678 H 90.02987 v 0.49196 0.49196 h 0.491959 0.496783 0.49196 0.496782 z"
           style="font-style:normal;font-variant:normal;font-weight:normal;font-stretch:normal;font-size:9.87777805px;font-family:Pixeboy;-inkscape-font-specification:'Pixeboy, Normal';font-variant-ligatures:normal;font-variant-caps:normal;font-variant-numeric:normal;font-feature-settings:normal;text-align:start;writing-mode:lr-tb;text-anchor:start;fill:#000000;stroke-width:0.26458332"
           id="path880"
           inkscape:connector-curvature="0" />
        <path
           d="m 97.115053,139.7002 v 0 h 0.496783 v 0.49196 0.49196 h -0.496783 -0.491959 v -0.49196 h -0.49196 -0.496783 -0.49196 -0.491959 v 0.49196 0.49678 h 0.491959 0.49196 0.496783 0.49196 0.491959 v 0.49196 h 0.496783 v 0.49196 0.49678 0.49196 0.49196 h -0.496783 v 0.49678 h -0.491959 -0.49196 -0.496783 -0.49196 -0.491959 -0.496783 v -0.49678 h -0.49196 v -0.49196 -0.49196 h 0.49196 0.496783 v 0.49196 h 0.491959 0.49196 0.496783 0.49196 v -0.49196 -0.49678 h -0.49196 -0.496783 -0.49196 -0.491959 v -0.49196 h -0.496783 v -0.49196 h -0.49196 v -0.49678 -0.49196 -0.49196 h 0.49196 v -0.49678 h 0.496783 0.491959 0.49196 0.496783 0.49196 0.491959 z"
           style="font-style:normal;font-variant:normal;font-weight:normal;font-stretch:normal;font-size:9.87777805px;font-family:Pixeboy;-inkscape-font-specification:'Pixeboy, Normal';font-variant-ligatures:normal;font-variant-caps:normal;font-variant-numeric:normal;font-feature-settings:normal;text-align:start;writing-mode:lr-tb;text-anchor:start;fill:#000000;stroke-width:0.26458332"
           id="path882"
           inkscape:connector-curvature="0" />
        <path
           d="m 101.74044,139.19859 v 0 h 0.49196 v 0.49679 0.49196 0.49678 0.49196 0.49196 0.49678 0.49196 0.49196 0.49678 0.49196 h -0.49196 -0.49196 v -0.49196 -0.49678 -0.49196 -0.49196 h -0.49678 -0.49196 -0.491963 -0.496783 v 0.49196 0.49196 0.49678 0.49196 h -0.49196 -0.491959 v -0.49196 -0.49678 -0.49196 -0.49196 -0.49678 -0.49196 -0.49196 -0.49678 -0.49196 -0.49679 h 0.491959 0.49196 v 0.49679 0.49196 0.49678 0.49196 h 0.496783 0.491963 0.49196 0.49678 v -0.49196 -0.49678 -0.49196 -0.49679 z"
           style="font-style:normal;font-variant:normal;font-weight:normal;font-stretch:normal;font-size:9.87777805px;font-family:Pixeboy;-inkscape-font-specification:'Pixeboy, Normal';font-variant-ligatures:normal;font-variant-caps:normal;font-variant-numeric:normal;font-feature-settings:normal;text-align:start;writing-mode:lr-tb;text-anchor:start;fill:#000000;stroke-width:0.26458332"
           id="path884"
           inkscape:connector-curvature="0" />
        <path
           d="m 108.01051,139.7002 v 0 h 0.49678 v 0.49196 0.49196 h -0.49678 -0.49196 v -0.49196 h -0.49196 -0.49678 -0.49196 -0.49196 v 0.49196 0.49678 h 0.49196 0.49196 0.49678 0.49196 0.49196 v 0.49196 h 0.49678 v 0.49196 0.49678 0.49196 0.49196 h -0.49678 v 0.49678 h -0.49196 -0.49196 -0.49678 -0.49196 -0.49196 -0.49678 v -0.49678 h -0.49196 v -0.49196 -0.49196 h 0.49196 0.49678 v 0.49196 h 0.49196 0.49196 0.49678 0.49196 v -0.49196 -0.49678 h -0.49196 -0.49678 -0.49196 -0.49196 v -0.49196 h -0.49678 v -0.49196 h -0.49196 v -0.49678 -0.49196 -0.49196 h 0.49196 v -0.49678 h 0.49678 0.49196 0.49196 0.49678 0.49196 0.49196 z"
           style="font-style:normal;font-variant:normal;font-weight:normal;font-stretch:normal;font-size:9.87777805px;font-family:Pixeboy;-inkscape-font-specification:'Pixeboy, Normal';font-variant-ligatures:normal;font-variant-caps:normal;font-variant-numeric:normal;font-feature-settings:normal;text-align:start;writing-mode:lr-tb;text-anchor:start;fill:#000000;stroke-width:0.26458332"
           id="path886"
           inkscape:connector-curvature="0" />
        <path
           d="m 112.64072,139.19859 v 0 h 0.49196 v 0.49679 0.49196 h -0.49196 -0.49678 -0.49196 -0.49679 -0.49196 -0.49195 v 0.49678 0.49196 h 0.49195 0.49196 0.49679 0.49196 0.49678 v 0.49196 h -0.49678 v 0.49678 h -0.49196 -0.49679 -0.49196 -0.49195 v 0.49196 0.49196 h 0.49195 0.49196 0.49679 0.49196 0.49678 0.49196 v 0.49678 0.49196 h -0.49196 -0.49678 -0.49196 -0.49679 -0.49196 -0.49195 -0.49679 -0.49196 v -0.49196 -0.49678 -0.49196 -0.49196 -0.49678 -0.49196 -0.49196 -0.49678 -0.49196 -0.49679 h 0.49196 0.49679 0.49195 0.49196 0.49679 0.49196 z"
           style="font-style:normal;font-variant:normal;font-weight:normal;font-stretch:normal;font-size:9.87777805px;font-family:Pixeboy;-inkscape-font-specification:'Pixeboy, Normal';font-variant-ligatures:normal;font-variant-caps:normal;font-variant-numeric:normal;font-feature-settings:normal;text-align:start;writing-mode:lr-tb;text-anchor:start;fill:#000000;stroke-width:0.26458332"
           id="path888"
           inkscape:connector-curvature="0" />
        <path
           d="m 117.26611,139.7002 v 0 h 0.49195 v 0.49196 0.49196 0.49678 0.49196 h -0.49195 v 0.49196 h -0.49679 v 0.49678 h 0.49679 v 0.49196 h 0.49195 v 0.49196 0.49678 h -0.49195 -0.49679 v -0.49678 h -0.49196 v -0.49196 h -0.49678 v -0.49196 h -0.49196 -0.49196 v 0.49196 0.49196 0.49678 h -0.49678 -0.49196 v -0.49678 -0.49196 -0.49196 -0.49678 -0.49196 -0.49196 -0.49678 -0.49196 -0.49196 -0.49678 h 0.49196 0.49678 0.49196 0.49196 0.49678 0.49196 0.49679 z m -0.98875,1.97266 v 0 h 0.49196 v -0.49196 -0.49678 -0.49196 h -0.49196 -0.49678 -0.49196 -0.49196 v 0.49196 0.49678 0.49196 h 0.49196 0.49196 z"
           style="font-style:normal;font-variant:normal;font-weight:normal;font-stretch:normal;font-size:9.87777805px;font-family:Pixeboy;-inkscape-font-specification:'Pixeboy, Normal';font-variant-ligatures:normal;font-variant-caps:normal;font-variant-numeric:normal;font-feature-settings:normal;text-align:start;writing-mode:lr-tb;text-anchor:start;fill:#000000;stroke-width:0.26458332"
           id="path890"
           inkscape:connector-curvature="0" />
        <path
           d="m 121.88667,139.20342 v 0 h 0.49196 v 0.49678 0.49196 0.49196 0.49678 0.49196 0.49196 0.49678 0.49196 h -0.49196 v 0.49679 h -0.49196 -0.49679 v 0.49195 h -0.49195 -0.49196 v -0.49195 h -0.49679 -0.49196 v -0.49679 h -0.49196 v -0.49196 -0.49678 -0.49196 -0.49196 -0.49678 -0.49196 -0.49196 -0.49678 h 0.49196 0.49196 v 0.49678 0.49196 0.49196 0.49678 0.49196 0.49196 0.49678 h 0.49679 v 0.49196 h 0.49196 0.49195 v -0.49196 h 0.49679 v -0.49678 -0.49196 -0.49196 -0.49678 -0.49196 -0.49196 -0.49678 z"
           style="font-style:normal;font-variant:normal;font-weight:normal;font-stretch:normal;font-size:9.87777805px;font-family:Pixeboy;-inkscape-font-specification:'Pixeboy, Normal';font-variant-ligatures:normal;font-variant-caps:normal;font-variant-numeric:normal;font-feature-settings:normal;text-align:start;writing-mode:lr-tb;text-anchor:start;fill:#000000;stroke-width:0.26458332"
           id="path892"
           inkscape:connector-curvature="0" />
        <path
           d="m 126.51205,139.19859 v 0 h 0.49196 v 0.49679 0.49196 h -0.49196 -0.49678 -0.49196 -0.49678 -0.49196 -0.49196 v 0.49678 0.49196 h 0.49196 0.49196 0.49678 0.49196 0.49678 v 0.49196 h -0.49678 v 0.49678 h -0.49196 -0.49678 -0.49196 -0.49196 v 0.49196 0.49196 h 0.49196 0.49196 0.49678 0.49196 0.49678 0.49196 v 0.49678 0.49196 h -0.49196 -0.49678 -0.49196 -0.49678 -0.49196 -0.49196 -0.49678 -0.49196 v -0.49196 -0.49678 -0.49196 -0.49196 -0.49678 -0.49196 -0.49196 -0.49678 -0.49196 -0.49679 h 0.49196 0.49678 0.49196 0.49196 0.49678 0.49196 z"
           style="font-style:normal;font-variant:normal;font-weight:normal;font-stretch:normal;font-size:9.87777805px;font-family:Pixeboy;-inkscape-font-specification:'Pixeboy, Normal';font-variant-ligatures:normal;font-variant-caps:normal;font-variant-numeric:normal;font-feature-settings:normal;text-align:start;writing-mode:lr-tb;text-anchor:start;fill:#000000;stroke-width:0.26458332"
           id="path894"
           inkscape:connector-curvature="0" />
        <path
           d="m 131.13744,139.7002 v 0 h 0.49196 v 0.49196 0.49196 0.49678 0.49196 h -0.49196 v 0.49196 h -0.49678 v 0.49678 h 0.49678 v 0.49196 h 0.49196 v 0.49196 0.49678 h -0.49196 -0.49678 v -0.49678 h -0.49196 v -0.49196 h -0.49679 v -0.49196 h -0.49196 -0.49196 v 0.49196 0.49196 0.49678 h -0.49678 -0.49196 v -0.49678 -0.49196 -0.49196 -0.49678 -0.49196 -0.49196 -0.49678 -0.49196 -0.49196 -0.49678 h 0.49196 0.49678 0.49196 0.49196 0.49679 0.49196 0.49678 z m -0.98874,1.97266 v 0 h 0.49196 v -0.49196 -0.49678 -0.49196 h -0.49196 -0.49679 -0.49196 -0.49196 v 0.49196 0.49678 0.49196 h 0.49196 0.49196 z"
           style="font-style:normal;font-variant:normal;font-weight:normal;font-stretch:normal;font-size:9.87777805px;font-family:Pixeboy;-inkscape-font-specification:'Pixeboy, Normal';font-variant-ligatures:normal;font-variant-caps:normal;font-variant-numeric:normal;font-feature-settings:normal;text-align:start;writing-mode:lr-tb;text-anchor:start;fill:#000000;stroke-width:0.26458332"
           id="path896"
           inkscape:connector-curvature="0" />
      </g>
      <g
         transform="translate(-27.581944,1.8265858)"
         style="fill:#000000"
         id="g880">
        <g
           aria-label="C"
           style="font-style:normal;font-variant:normal;font-weight:normal;font-stretch:normal;font-size:50.79999924px;line-height:1.25;font-family:Pixeboy;-inkscape-font-specification:Pixeboy;letter-spacing:0px;word-spacing:0px;fill:#000000;fill-opacity:1;stroke:none;stroke-width:0.26458332"
           id="text980">
          <path
             d="m 124.78064,111.0515 v 0 h 2.53008 v 2.53008 2.55489 h -2.53008 -2.55488 v -2.55489 h -2.53008 -2.53008 -2.55488 -2.53008 v 2.55489 2.53007 2.53008 2.55488 2.53008 2.53008 h 2.53008 2.55488 2.53008 2.53008 v -2.53008 h 2.55488 2.53008 v 2.53008 2.55488 h -2.53008 v 2.53008 h -2.55488 -2.53008 -2.53008 -2.55488 -2.53008 -2.53008 v -2.53008 h -2.55488 v -2.55488 -2.53008 -2.53008 -2.55488 -2.53008 -2.53007 -2.55489 -2.53008 h 2.55488 v -2.55488 h 2.53008 2.53008 2.55488 2.53008 2.53008 2.55488 z"
             style="font-style:normal;font-variant:normal;font-weight:normal;font-stretch:normal;font-size:50.79999924px;font-family:Pixeboy;-inkscape-font-specification:Pixeboy;fill:#000000;stroke-width:0.26458332"
             id="path899"
             inkscape:connector-curvature="0" />
        </g>
        <g
           aria-label="C"
           transform="scale(-1)"
           style="font-style:normal;font-variant:normal;font-weight:normal;font-stretch:normal;font-size:50.79999924px;line-height:1.25;font-family:Pixeboy;-inkscape-font-specification:Pixeboy;letter-spacing:0px;word-spacing:0px;fill:#000000;fill-opacity:1;stroke:none;stroke-width:0.26458332"
           id="text980-1">
          <path
             d="m -141.79818,-131.34173 v 0 h 2.53007 v 2.53008 2.55488 h -2.53007 -2.55489 v -2.55488 h -2.53008 -2.53007 -2.55489 -2.53007 v 2.55488 2.53008 2.53008 2.55488 2.53008 2.53008 h 2.53007 2.55489 2.53007 2.53008 v -2.53008 h 2.55489 2.53007 v 2.53008 2.55488 h -2.53007 v 2.53008 h -2.55489 -2.53008 -2.53007 -2.55489 -2.53007 -2.53008 v -2.53008 h -2.55489 v -2.55488 -2.53008 -2.53008 -2.55488 -2.53008 -2.53008 -2.55488 -2.53008 h 2.55489 v -2.55488 h 2.53008 2.53007 2.55489 2.53007 2.53008 2.55489 z"
             style="font-style:normal;font-variant:normal;font-weight:normal;font-stretch:normal;font-size:50.79999924px;font-family:Pixeboy;-inkscape-font-specification:Pixeboy;fill:#000000;stroke-width:0.26458332"
             id="path902"
             inkscape:connector-curvature="0" />
        </g>
        <g
           aria-label="S"
           transform="matrix(0,0.73655834,-1.3576657,0,0,0)"
           style="font-style:normal;font-variant:normal;font-weight:normal;font-stretch:normal;font-size:41.74807358px;line-height:1.25;font-family:Pixeboy;-inkscape-font-specification:Pixeboy;letter-spacing:0px;word-spacing:0px;fill:#000000;fill-opacity:1;stroke:none;stroke-width:0.21743788"
           id="text1002">
          <path
             d="m 170.45689,-106.29149 v 0 h 2.09963 v 2.07925 2.07925 h -2.09963 -2.07925 v -2.07925 h -2.07925 -2.09964 -2.07925 -2.07925 v 2.07925 2.09964 h 2.07925 2.07925 2.09964 2.07925 2.07925 v 2.079248 h 2.09963 v 2.07925 2.099635 2.07925 2.079249 h -2.09963 v 2.099635 h -2.07925 -2.07925 -2.09964 -2.07925 -2.07925 -2.09963 v -2.099635 h -2.07925 v -2.079249 -2.07925 h 2.07925 2.09963 v 2.07925 h 2.07925 2.07925 2.09964 2.07925 v -2.07925 -2.099635 h -2.07925 -2.09964 -2.07925 -2.07925 v -2.07925 h -2.09963 v -2.079248 h -2.07925 v -2.09964 -2.07925 -2.07925 h 2.07925 v -2.09963 h 2.09963 2.07925 2.07925 2.09964 2.07925 2.07925 z"
             style="font-style:normal;font-variant:normal;font-weight:normal;font-stretch:normal;font-size:41.74807358px;font-family:Pixeboy;-inkscape-font-specification:Pixeboy;fill:#000000;stroke-width:0.21743788"
             id="path906"
             inkscape:connector-curvature="0" />
        </g>
        <g
           aria-label="."
           style="font-style:normal;font-variant:normal;font-weight:normal;font-stretch:normal;font-size:20.6452446px;line-height:1.25;font-family:Pixeboy;-inkscape-font-specification:'Pixeboy, Normal';font-variant-ligatures:normal;font-variant-caps:normal;font-variant-numeric:normal;font-feature-settings:normal;text-align:start;letter-spacing:0px;word-spacing:0px;writing-mode:lr-tb;text-anchor:start;fill:#000000;fill-opacity:1;stroke:none;stroke-width:0.5161311"
           id="text1010">
          <path
             d="m 126.30252,107.43828 v 0 h 1.03831 1.02823 v 1.02823 1.02823 h -1.02823 -1.03831 v -1.02823 z"
             style="font-style:normal;font-variant:normal;font-weight:normal;font-stretch:normal;font-size:20.6452446px;font-family:Pixeboy;-inkscape-font-specification:'Pixeboy, Normal';font-variant-ligatures:normal;font-variant-caps:normal;font-variant-numeric:normal;font-feature-settings:normal;text-align:start;writing-mode:lr-tb;text-anchor:start;fill:#000000;stroke-width:0.5161311"
             id="path909"
             inkscape:connector-curvature="0" />
        </g>
        <g
           aria-label="."
           style="font-style:normal;font-variant:normal;font-weight:normal;font-stretch:normal;font-size:20.6452446px;line-height:1.25;font-family:Pixeboy;-inkscape-font-specification:'Pixeboy, Normal';font-variant-ligatures:normal;font-variant-caps:normal;font-variant-numeric:normal;font-feature-settings:normal;text-align:start;letter-spacing:0px;word-spacing:0px;writing-mode:lr-tb;text-anchor:start;fill:#000000;fill-opacity:1;stroke:none;stroke-width:0.5161311"
           id="text1010-3">
          <path
             d="m 139.2681,131.84016 v 0 h 1.03831 1.02823 v 1.02823 1.02823 h -1.02823 -1.03831 v -1.02823 z"
             style="font-style:normal;font-variant:normal;font-weight:normal;font-stretch:normal;font-size:20.6452446px;font-family:Pixeboy;-inkscape-font-specification:'Pixeboy, Normal';font-variant-ligatures:normal;font-variant-caps:normal;font-variant-numeric:normal;font-feature-settings:normal;text-align:start;writing-mode:lr-tb;text-anchor:start;fill:#000000;stroke-width:0.5161311"
             id="path912"
             inkscape:connector-curvature="0" />
        </g>
      </g>
    </g>
    <ellipse
       style="opacity:1;fill:none;stroke:none;stroke-width:1.3513521;stroke-miterlimit:4;stroke-dasharray:none;stroke-opacity:1"
       id="path905"
       cx="211.66667"
       cy="85.115578"
       rx="234.37003"
       ry="209.58116" />
  </g>
</svg>
